{"title":"Lana Del Rey - Summertime Sadness {M4A+MP4} (1080p) x264 [VX] [P","uid":7983630,"size":52311954,"categoryP":"video","categoryS":"music_videos","magnet":"?xt=urn:btih:fc600872011b6f54877db2a1eeca6c6ba5336054&amp;dn=Lana+Del+Rey+-+Summertime+Sadness+%7BM4A%2BMP4%7D+%281080p%29+x264+%5BVX%5D+%5BP&amp;tr=udp%3A%2F%2Ftracker.openbittorrent.com%3A80&amp;tr=udp%3A%2F%2Fopen.demonii.com%3A1337&amp;tr=udp%3A%2F%2Ftracker.coppersurfer.tk%3A6969&amp;tr=udp%3A%2F%2Fexodus.desync.com%3A6969","seeders":3,"leechers":10,"uploader":"Vitamin_X","files":-1,"time":1357237936,"description":"Lana Del Rey - Summertime Sadness {M4A+MP4} (1080p) x264 [VX] [P2PDL]\n &lt;a href=&quot;\nhttp://www.shotpix.com/images/92519637342825272128.png&quot; rel=&quot;nofollow&quot; target=&quot;_NEW&quot;&gt;\nhttp://www.shotpix.com/images/92519637342825272128.png&lt;/a&gt;\n\nRelease Title: Lana Del Rey - Summertime Sadness (2012)\n\n                            1080p Full HD MP4 Video\n                                       +\n                            128 Kbps/VBR M4A Audio\n\nGeneral\nFormat                         : MPEG-4\nFormat profile                 : Base Media / Version 2\nCodec ID                       : mp42\nFile size                      : 45.0 MiB\nDuration                       : 4mn 42s\n\nVideo\nID                             : 1\nFormat                         : AVC\nCodec ID/Info                  : Advanced Video Coding\nDuration                       : 4mn 42s\nBit rate mode                  : Variable\nBit rate                       : 1 200 Kbps\nWidth                          : 1 920 pixels\nHeight                         : 1 080 pixels\nDisplay aspect ratio           : 16:9\nFrame rate mode                : Constant\nFrame rate                     : 25.000 fps\nStream size                    : 40.5 MiB (90%)\nWriting library                : x264 core 128\n\nAudio\nID                             : 2\nFormat                         : AAC\nDuration                       : 4mn 42s\nBit rate mode                  : Variable\nBit rate                       : 128 Kbps\nSampling rate                  : 44.1 KHz\nStream size                    : 4.32 MiB (10%)\n\nSubtitles                      : No\n\nScreens:\n &lt;a href=&quot;\nhttp://www.shotpix.com/images/50154915591227063926.jpg&quot; rel=&quot;nofollow&quot; target=&quot;_NEW&quot;&gt;\nhttp://www.shotpix.com/images/50154915591227063926.jpg&lt;/a&gt; &lt;a href=&quot;\nhttp://www.shotpix.com/images/18266464156340348857.jpg&quot; rel=&quot;nofollow&quot; target=&quot;_NEW&quot;&gt;\nhttp://www.shotpix.com/images/18266464156340348857.jpg&lt;/a&gt;\n\nThumbs:\n &lt;a href=&quot;\nhttp://www.shotpix.com/images/83132198305212601681.jpg&quot; rel=&quot;nofollow&quot; target=&quot;_NEW&quot;&gt;\nhttp://www.shotpix.com/images/83132198305212601681.jpg&lt;/a&gt;\n\n------------------------------------------------------------------------\n\nNotes:\n\n* Recommended to use latest version VLC Media Player.\n* Install shark007 codecs in case of any kind of problem in playback (For non-VLC Media Player users).\n* Alternatively, install Core AVC codecs, the fastest decoder that there is coupled with Community Center Codec Pack and play on Windows Media Player Classic.\n\nGreets to: VYTO, a2zRG, stumpie1971, Sheychi staff members at ExtraTorrent, TPB,KAT, 1337x, PublicHD, Ahashare, TorrentMafia, Limetorrents, BTScene, P2PDL, and all others\n\nEncoder Notes: Looking For Early Access To Anything You Can Provide DVDScr, R5, DVDRips, BluRay, Direct Audio, Early Music\nReleases, Seedboxes, Links, Dedicated Servers anything u can provide, Advance / Promo CDs/DVDs. If You Got anything to\noffer contact me at &quot;&lt;a class=&quot;__cf_email__&quot; href=&quot;/cdn-cgi/l/email-protection&quot; data-cfemail=&quot;1d6d6f7a5d75686e75337e7270&quot;&gt;[email&amp;#160;protected]&lt;/a&gt;&lt;script cf-hash='f9e31' type=&quot;text/javascript&quot;&gt;\n/* &lt;![CDATA[ */!function(){try{var t=&quot;currentScript&quot;in document?document.currentScript:function(){for(var t=document.getElementsByTagName(&quot;script&quot;),e=t.length;e--;)if(t[e].getAttribute(&quot;cf-hash&quot;))return t[e]}();if(t&amp;&amp;t.previousSibling){var e,r,n,i,c=t.previousSibling,a=c.getAttribute(&quot;data-cfemail&quot;);if(a){for(e=&quot;&quot;,r=parseInt(a.substr(0,2),16),n=2;a.length-n;n+=2)i=parseInt(a.substr(n,2),16)^r,e+=String.fromCharCode(i);e=document.createTextNode(e),c.parentNode.replaceChild(e,c)}}}catch(u){}}();/* ]]&gt; */&lt;/script&gt;&quot;\n\nFacebook Fan Page: www . facebook . com / p2pdl","torrent":{"xt":"urn:btih:fc600872011b6f54877db2a1eeca6c6ba5336054","amp;dn":"Lana+Del+Rey+-+Summertime+Sadness+%7BM4A%2BMP4%7D+%281080p%29+x264+%5BVX%5D+%5BP","amp;tr":["udp%3A%2F%2Ftracker.openbittorrent.com%3A80","udp%3A%2F%2Fopen.demonii.com%3A1337","udp%3A%2F%2Ftracker.coppersurfer.tk%3A6969","udp%3A%2F%2Fexodus.desync.com%3A6969"],"infoHash":"fc600872011b6f54877db2a1eeca6c6ba5336054","infoHashBuffer":{"type":"Buffer","data":[252,96,8,114,1,27,111,84,135,125,178,161,238,202,108,107,165,51,96,84]},"announce":[],"urlList":[]}}